<?xml version="1.0" encoding="UTF-8"?>
<!DOCTYPE svg PUBLIC "-//W3C//DTD SVG 1.1//EN" "http://www.w3.org/Graphics/SVG/1.1/DTD/svg11.dtd">
<svg xmlns="http://www.w3.org/2000/svg" version="1.1" width="3750px" height="3750px" style="shape-rendering:geometricPrecision; text-rendering:geometricPrecision; image-rendering:optimizeQuality; fill-rule:evenodd; clip-rule:evenodd" xmlns:xlink="http://www.w3.org/1999/xlink">
<g><path style="opacity:1" fill="#e10100" d="M 1723.5,-0.5 C 1816.83,-0.5 1910.17,-0.5 2003.5,-0.5C 2196.73,17.3149 2384.06,60.8149 2565.5,130C 2808.32,225.956 3020.82,366.79 3203,552.5C 3303.37,656.48 3392.7,768.813 3471,889.5C 3631.76,1155.47 3723.76,1443.8 3747,1754.5C 3759.33,2003.19 3726,2245.52 3647,2481.5C 3572.71,2694.52 3464.71,2887.52 3323,3060.5C 3304,3082.83 3285,3105.17 3266,3127.5C 3264.89,3129.33 3263.39,3130.16 3261.5,3130C 3128.26,2832.2 2998.6,2532.86 2872.5,2232C 2872.64,2231.23 2872.98,2230.56 2873.5,2230C 2892.08,2226.14 2910.08,2220.47 2927.5,2213C 3021.36,2167.92 3105.7,2109.42 3180.5,2037.5C 3186.83,2033.17 3192.17,2027.83 3196.5,2021.5C 3282.58,1933.49 3348.08,1831.82 3393,1716.5C 3458.75,1549.61 3485.75,1376.61 3474,1197.5C 3448.96,1107.42 3407.63,1026.09 3350,953.5C 3270.89,861.329 3171.39,803.162 3051.5,779C 3014.53,771.29 2977.2,766.29 2939.5,764C 2588.6,747.012 2237.6,742.678 1886.5,751C 1845.95,768.544 1819.12,798.377 1806,840.5C 1763.95,1073.09 1722.28,1305.76 1681,1538.5C 1670.87,1584.96 1643.04,1615.13 1597.5,1629C 1502.84,1630.83 1408.18,1631.67 1313.5,1631.5C 1256.31,1630.95 1198.97,1629.45 1141.5,1627C 1093.5,1626.5 1045.5,1626.33 997.5,1626.5C 997.5,1622.17 997.5,1617.83 997.5,1613.5C 1086.11,1125.52 1178.28,638.185 1274,151.5C 1291.8,111.036 1321.3,82.8694 1362.5,67C 1481.14,34.7712 1601.47,12.2712 1723.5,-0.5 Z"/></g>
<g><path style="opacity:1" fill="#e10100" d="M 1397.5,3039.5 C 1392.99,3044.2 1391.66,3049.7 1393.5,3056C 1570.69,3057.55 1747.69,3056.05 1924.5,3051.5C 1930.76,3051.81 1936.92,3051.48 1943,3050.5C 2062.13,2444.17 2179.47,1837.51 2295,1230.5C 2302.66,1204.73 2315.5,1182.06 2333.5,1162.5C 2336.43,1161.24 2338.76,1159.24 2340.5,1156.5C 2356.2,1141.3 2374.53,1130.14 2395.5,1123C 2403.72,1120.26 2412.05,1117.93 2420.5,1116C 2499.5,1112.67 2578.5,1112.67 2657.5,1116C 2713.75,1126.46 2763.75,1149.8 2807.5,1186C 2851.5,1226.15 2879.34,1275.65 2891,1334.5C 2897.17,1364.87 2899.17,1395.54 2897,1426.5C 2893.37,1504.65 2878.7,1580.65 2853,1654.5C 2777.63,1823.34 2648.46,1923.17 2465.5,1954C 2389.14,1955 2312.81,1956.83 2236.5,1959.5C 2233.1,1959.18 2229.77,1959.51 2226.5,1960.5C 2226.62,1961.11 2226.96,1961.44 2227.5,1961.5C 2414.17,2440.67 2601.34,2919.67 2789,3398.5C 2797.48,3426.29 2799.81,3454.62 2796,3483.5C 2794.99,3490.56 2793.66,3497.56 2792,3504.5C 2640.27,3591.76 2479.11,3655.92 2308.5,3697C 2099.51,3747.17 1888.18,3760.83 1674.5,3738C 1178.54,3678.82 768.377,3461.65 444,3086.5C 352.054,2980.35 273.721,2864.68 209,2739.5C 90.499,2510.5 20.6656,2267.5 -0.5,2010.5C -0.5,1917.83 -0.5,1825.17 -0.5,1732.5C 17.705,1533.68 64.205,1341.68 139,1156.5C 234.331,928.837 368.164,727.504 540.5,552.5C 544.833,550.167 548.167,546.833 550.5,542.5C 556.167,536.167 562.167,530.167 568.5,524.5C 573.774,520.895 578.441,516.562 582.5,511.5C 593.198,499.801 604.532,488.801 616.5,478.5C 618.749,477.92 620.415,476.587 621.5,474.5C 626.231,468.436 631.898,463.436 638.5,459.5C 643.077,460.921 644.577,463.921 643,468.5C 577.486,815.405 512.486,1162.4 448,1509.5C 379.696,1878.68 311.529,2247.85 243.5,2617C 406.833,2615.35 570.167,2613.35 733.5,2611C 775.127,2602.37 802.627,2577.87 816,2537.5C 846.738,2377.07 877.905,2216.74 909.5,2056.5C 1133.5,2055.17 1357.5,2055.17 1581.5,2056.5C 1519.19,2384.02 1457.86,2711.68 1397.5,3039.5 Z"/></g>
<g><path style="opacity:1" fill="#ee624d" d="M 621.5,474.5 C 620.415,476.587 618.749,477.92 616.5,478.5C 617.585,476.413 619.251,475.08 621.5,474.5 Z"/></g>
<g><path style="opacity:1" fill="#ef614a" d="M 582.5,511.5 C 578.441,516.562 573.774,520.895 568.5,524.5C 572.559,519.438 577.226,515.105 582.5,511.5 Z"/></g>
<g><path style="opacity:1" fill="#ef634d" d="M 550.5,542.5 C 548.167,546.833 544.833,550.167 540.5,552.5C 543.5,548.833 546.833,545.5 550.5,542.5 Z"/></g>
<g><path style="opacity:1" fill="#ef624b" d="M 2340.5,1156.5 C 2338.76,1159.24 2336.43,1161.24 2333.5,1162.5C 2335.24,1159.76 2337.57,1157.76 2340.5,1156.5 Z"/></g>
<g><path style="opacity:1" fill="#eea1a0" d="M 997.5,1613.5 C 997.5,1617.83 997.5,1622.17 997.5,1626.5C 1045.5,1626.33 1093.5,1626.5 1141.5,1627C 1198.97,1629.45 1256.31,1630.95 1313.5,1631.5C 1206.83,1631.67 1100.17,1631.5 993.5,1631C 991.772,1624.42 993.105,1618.58 997.5,1613.5 Z"/></g>
<g><path style="opacity:1" fill="#f2a1a0" d="M 2236.5,1959.5 C 2233.5,1960.17 2230.5,1960.83 2227.5,1961.5C 2226.96,1961.44 2226.62,1961.11 2226.5,1960.5C 2229.77,1959.51 2233.1,1959.18 2236.5,1959.5 Z"/></g>
<g><path style="opacity:1" fill="#ef624c" d="M 3196.5,2021.5 C 3192.17,2027.83 3186.83,2033.17 3180.5,2037.5C 3185.5,2031.83 3190.83,2026.5 3196.5,2021.5 Z"/></g>
<g><path style="opacity:1" fill="#e65453" d="M 1397.5,3039.5 C 1397.5,3043.5 1397.5,3047.5 1397.5,3051.5C 1573.17,3051.5 1748.83,3051.5 1924.5,3051.5C 1747.69,3056.05 1570.69,3057.55 1393.5,3056C 1391.66,3049.7 1392.99,3044.2 1397.5,3039.5 Z"/></g>
</svg>
